<svg xmlns="http://www.w3.org/2000/svg" xmlns:xlink="http://www.w3.org/1999/xlink" width="500" zoomAndPan="magnify" viewBox="0 0 375 374.999991" height="500" preserveAspectRatio="xMidYMid meet" version="1.0"><defs><clipPath id="f004673d93"><path d="M 0 0.195312 L 375 0.195312 L 375 375 L 0 375 Z M 0 0.195312 " clip-rule="nonzero"/></clipPath><clipPath id="9c26628141"><path d="M 202 292 L 212 292 L 212 328.453125 L 202 328.453125 Z M 202 292 " clip-rule="nonzero"/></clipPath><clipPath id="07632d7acf"><path d="M 218 294 L 246 294 L 246 328.453125 L 218 328.453125 Z M 218 294 " clip-rule="nonzero"/></clipPath><clipPath id="fe95f02a34"><path d="M 183 286 L 212 286 L 212 328.453125 L 183 328.453125 Z M 183 286 " clip-rule="nonzero"/></clipPath><clipPath id="931a6120e8"><path d="M 175 46.453125 L 276.261719 46.453125 L 276.261719 91 L 175 91 Z M 175 46.453125 " clip-rule="nonzero"/></clipPath><clipPath id="ead4674acf"><path d="M 98.511719 156 L 246 156 L 246 328.453125 L 98.511719 328.453125 Z M 98.511719 156 " clip-rule="nonzero"/></clipPath></defs><g clip-path="url(#f004673d93)"><path fill="#000000" d="M 375 187.695312 C 375 190.761719 374.925781 193.828125 374.773438 196.894531 C 374.625 199.960938 374.398438 203.019531 374.097656 206.074219 C 373.796875 209.125 373.421875 212.171875 372.96875 215.207031 C 372.519531 218.242188 371.996094 221.265625 371.398438 224.273438 C 370.796875 227.285156 370.125 230.277344 369.378906 233.253906 C 368.636719 236.230469 367.816406 239.1875 366.925781 242.121094 C 366.035156 245.058594 365.074219 247.972656 364.039062 250.859375 C 363.003906 253.75 361.902344 256.613281 360.726562 259.449219 C 359.554688 262.28125 358.308594 265.085938 356.996094 267.859375 C 355.6875 270.636719 354.308594 273.375 352.859375 276.082031 C 351.414062 278.789062 349.902344 281.457031 348.324219 284.089844 C 346.746094 286.71875 345.105469 289.3125 343.402344 291.863281 C 341.695312 294.414062 339.929688 296.921875 338.101562 299.386719 C 336.273438 301.851562 334.386719 304.269531 332.4375 306.644531 C 330.492188 309.015625 328.488281 311.339844 326.429688 313.613281 C 324.367188 315.886719 322.253906 318.105469 320.082031 320.277344 C 317.914062 322.445312 315.691406 324.5625 313.417969 326.621094 C 311.144531 328.683594 308.820312 330.6875 306.449219 332.632812 C 304.078125 334.582031 301.660156 336.46875 299.195312 338.296875 C 296.730469 340.125 294.222656 341.890625 291.667969 343.59375 C 289.117188 345.300781 286.527344 346.941406 283.894531 348.519531 C 281.261719 350.097656 278.59375 351.609375 275.886719 353.054688 C 273.179688 354.5 270.441406 355.878906 267.667969 357.191406 C 264.894531 358.503906 262.089844 359.746094 259.253906 360.921875 C 256.417969 362.097656 253.554688 363.199219 250.667969 364.234375 C 247.777344 365.269531 244.863281 366.230469 241.929688 367.121094 C 238.992188 368.011719 236.035156 368.828125 233.058594 369.574219 C 230.082031 370.320312 227.089844 370.992188 224.078125 371.589844 C 221.070312 372.191406 218.046875 372.714844 215.011719 373.164062 C 211.976562 373.613281 208.933594 373.992188 205.878906 374.292969 C 202.824219 374.59375 199.765625 374.816406 196.699219 374.96875 C 193.636719 375.117188 190.570312 375.195312 187.5 375.195312 C 184.429688 375.195312 181.363281 375.117188 178.300781 374.96875 C 175.234375 374.816406 172.175781 374.59375 169.121094 374.292969 C 166.066406 373.992188 163.023438 373.613281 159.988281 373.164062 C 156.953125 372.714844 153.929688 372.191406 150.921875 371.589844 C 147.910156 370.992188 144.917969 370.320312 141.941406 369.574219 C 138.964844 368.828125 136.007812 368.011719 133.070312 367.121094 C 130.136719 366.230469 127.222656 365.265625 124.332031 364.234375 C 121.445312 363.199219 118.582031 362.097656 115.746094 360.921875 C 112.910156 359.746094 110.105469 358.503906 107.332031 357.191406 C 104.558594 355.878906 101.820312 354.5 99.113281 353.054688 C 96.40625 351.609375 93.738281 350.097656 91.105469 348.519531 C 88.472656 346.941406 85.882812 345.300781 83.332031 343.59375 C 80.777344 341.890625 78.269531 340.125 75.804688 338.296875 C 73.339844 336.46875 70.921875 334.582031 68.550781 332.632812 C 66.179688 330.6875 63.855469 328.683594 61.582031 326.621094 C 59.308594 324.5625 57.085938 322.445312 54.917969 320.277344 C 52.746094 318.105469 50.632812 315.886719 48.570312 313.613281 C 46.511719 311.339844 44.507812 309.015625 42.558594 306.644531 C 40.613281 304.269531 38.726562 301.851562 36.898438 299.386719 C 35.070312 296.921875 33.304688 294.414062 31.597656 291.863281 C 29.894531 289.3125 28.253906 286.71875 26.675781 284.089844 C 25.097656 281.457031 23.585938 278.789062 22.140625 276.082031 C 20.691406 273.375 19.3125 270.636719 18.003906 267.859375 C 16.691406 265.085938 15.445312 262.28125 14.273438 259.449219 C 13.097656 256.613281 11.996094 253.75 10.960938 250.859375 C 9.925781 247.972656 8.964844 245.058594 8.074219 242.121094 C 7.183594 239.1875 6.363281 236.230469 5.621094 233.253906 C 4.875 230.277344 4.203125 227.285156 3.601562 224.273438 C 3.003906 221.265625 2.480469 218.242188 2.03125 215.207031 C 1.578125 212.171875 1.203125 209.125 0.902344 206.074219 C 0.601562 203.019531 0.375 199.960938 0.226562 196.894531 C 0.0742188 193.828125 0 190.761719 0 187.695312 C 0 184.625 0.0742188 181.558594 0.226562 178.496094 C 0.375 175.429688 0.601562 172.371094 0.902344 169.316406 C 1.203125 166.261719 1.578125 163.21875 2.03125 160.183594 C 2.480469 157.148438 3.003906 154.125 3.601562 151.113281 C 4.203125 148.105469 4.875 145.113281 5.621094 142.136719 C 6.363281 139.160156 7.183594 136.203125 8.074219 133.265625 C 8.964844 130.328125 9.925781 127.417969 10.960938 124.527344 C 11.996094 121.636719 13.097656 118.777344 14.273438 115.941406 C 15.445312 113.105469 16.691406 110.300781 18.003906 107.527344 C 19.3125 104.753906 20.691406 102.015625 22.140625 99.308594 C 23.585938 96.601562 25.097656 93.933594 26.675781 91.300781 C 28.253906 88.667969 29.894531 86.078125 31.597656 83.523438 C 33.304688 80.972656 35.070312 78.464844 36.898438 76 C 38.726562 73.535156 40.613281 71.117188 42.558594 68.746094 C 44.507812 66.375 46.511719 64.050781 48.570312 61.777344 C 50.632812 59.503906 52.746094 57.28125 54.917969 55.113281 C 57.085938 52.941406 59.308594 50.828125 61.582031 48.765625 C 63.855469 46.707031 66.179688 44.703125 68.550781 42.753906 C 70.921875 40.808594 73.339844 38.921875 75.804688 37.09375 C 78.269531 35.265625 80.777344 33.5 83.332031 31.792969 C 85.882812 30.089844 88.472656 28.449219 91.105469 26.871094 C 93.738281 25.292969 96.40625 23.78125 99.113281 22.335938 C 101.820312 20.886719 104.558594 19.507812 107.332031 18.195312 C 110.105469 16.882812 112.910156 15.640625 115.746094 14.46875 C 118.582031 13.292969 121.445312 12.1875 124.332031 11.15625 C 127.222656 10.121094 130.136719 9.160156 133.070312 8.269531 C 136.007812 7.378906 138.964844 6.558594 141.941406 5.8125 C 144.917969 5.066406 147.910156 4.394531 150.921875 3.796875 C 153.929688 3.199219 156.953125 2.675781 159.988281 2.222656 C 163.023438 1.773438 166.066406 1.398438 169.121094 1.097656 C 172.175781 0.796875 175.234375 0.570312 178.300781 0.421875 C 181.363281 0.269531 184.429688 0.195312 187.5 0.195312 C 190.570312 0.195312 193.636719 0.269531 196.699219 0.421875 C 199.765625 0.570312 202.824219 0.796875 205.878906 1.097656 C 208.933594 1.398438 211.976562 1.773438 215.011719 2.222656 C 218.046875 2.675781 221.070312 3.199219 224.078125 3.796875 C 227.089844 4.394531 230.082031 5.066406 233.058594 5.8125 C 236.035156 6.558594 238.992188 7.378906 241.929688 8.269531 C 244.863281 9.160156 247.777344 10.121094 250.667969 11.15625 C 253.554688 12.1875 256.417969 13.292969 259.253906 14.46875 C 262.089844 15.640625 264.894531 16.882812 267.667969 18.195312 C 270.441406 19.507812 273.179688 20.886719 275.886719 22.335938 C 278.59375 23.78125 281.261719 25.292969 283.894531 26.871094 C 286.527344 28.449219 289.117188 30.089844 291.667969 31.792969 C 294.222656 33.5 296.730469 35.265625 299.195312 37.09375 C 301.660156 38.921875 304.078125 40.808594 306.449219 42.753906 C 308.820312 44.703125 311.144531 46.707031 313.417969 48.765625 C 315.691406 50.828125 317.914062 52.941406 320.082031 55.113281 C 322.253906 57.28125 324.367188 59.503906 326.429688 61.777344 C 328.488281 64.050781 330.492188 66.375 332.4375 68.746094 C 334.386719 71.117188 336.273438 73.535156 338.101562 76 C 339.929688 78.464844 341.695312 80.972656 343.402344 83.523438 C 345.105469 86.078125 346.746094 88.667969 348.324219 91.300781 C 349.902344 93.933594 351.414062 96.601562 352.859375 99.308594 C 354.308594 102.015625 355.6875 104.753906 356.996094 107.527344 C 358.308594 110.300781 359.554688 113.105469 360.726562 115.941406 C 361.902344 118.777344 363.003906 121.636719 364.039062 124.527344 C 365.074219 127.417969 366.035156 130.328125 366.925781 133.265625 C 367.816406 136.203125 368.636719 139.160156 369.378906 142.136719 C 370.125 145.113281 370.796875 148.105469 371.398438 151.113281 C 371.996094 154.125 372.519531 157.148438 372.96875 160.183594 C 373.421875 163.21875 373.796875 166.261719 374.097656 169.316406 C 374.398438 172.371094 374.625 175.429688 374.773438 178.496094 C 374.925781 181.558594 375 184.625 375 187.695312 Z M 375 187.695312 " fill-opacity="1" fill-rule="nonzero"/></g><g clip-path="url(#9c26628141)"><path fill="#d9d9d9" d="M 205.890625 293.164062 C 207.640625 293.5 209.445312 293.78125 211.25 294.066406 L 211.25 328.367188 C 209.445312 328.253906 207.695312 328.140625 205.890625 327.972656 C 204.707031 327.859375 203.464844 327.746094 202.28125 327.578125 L 202.28125 292.429688 C 203.464844 292.710938 204.648438 292.9375 205.890625 293.164062 Z M 205.890625 293.164062 " fill-opacity="1" fill-rule="nonzero"/></g><path fill="#d9d9d9" d="M 211.195312 139.710938 L 211.195312 287.351562 C 210.121094 287.125 209.050781 286.898438 208.035156 286.675781 C 207.300781 286.503906 206.566406 286.335938 205.890625 286.167969 C 205.382812 286.054688 204.929688 285.941406 204.480469 285.828125 C 203.746094 285.660156 203.011719 285.433594 202.335938 285.265625 L 202.335938 139.710938 Z M 211.195312 139.710938 " fill-opacity="1" fill-rule="nonzero"/><g clip-path="url(#07632d7acf)"><path fill="#d9d9d9" d="M 245.832031 311.609375 C 245.832031 314.488281 245.15625 317.363281 243.746094 319.902344 C 241.546875 323.910156 237.484375 326.957031 231.558594 327.6875 C 227.328125 328.195312 223.042969 328.480469 218.640625 328.535156 C 218.527344 328.535156 218.472656 328.535156 218.359375 328.535156 L 218.359375 294.855469 C 221.574219 295.136719 224.789062 295.25 228.0625 295.25 C 228.511719 295.25 228.964844 295.25 229.472656 295.25 C 240.191406 295.136719 245.832031 303.375 245.832031 311.609375 Z M 245.832031 311.609375 " fill-opacity="1" fill-rule="nonzero"/></g><path fill="#d9d9d9" d="M 249.445312 84.140625 L 249.445312 90.175781 L 245.832031 90.175781 L 245.832031 292.992188 C 243.183594 290.792969 239.628906 289.382812 235.171875 289.4375 C 234.71875 289.4375 234.269531 289.4375 233.761719 289.4375 C 230.488281 289.4375 227.273438 289.324219 224.058594 289.042969 C 222.136719 288.875 220.21875 288.707031 218.300781 288.421875 L 218.300781 136.15625 C 218.300781 134.179688 216.667969 132.546875 214.691406 132.546875 L 205.777344 132.546875 L 205.777344 90.34375 L 202.167969 90.34375 L 202.167969 84.140625 Z M 249.445312 84.140625 " fill-opacity="1" fill-rule="nonzero"/><path fill="#d9d9d9" d="M 249.445312 80.585938 L 202.28125 80.585938 C 200.304688 80.585938 198.667969 82.222656 198.667969 84.195312 L 198.667969 90.402344 L 205.890625 90.402344 L 205.890625 87.808594 L 245.890625 87.808594 L 245.890625 90.234375 L 253.109375 90.234375 L 253.109375 84.140625 C 253.054688 82.164062 251.417969 80.585938 249.445312 80.585938 Z M 198.667969 139.710938 L 198.667969 284.191406 C 199.855469 284.53125 201.039062 284.925781 202.28125 285.265625 C 203.011719 285.488281 203.691406 285.660156 204.421875 285.828125 C 204.875 285.941406 205.382812 286.054688 205.835938 286.167969 L 205.835938 139.710938 Z M 202.28125 292.429688 C 201.09375 292.148438 199.855469 291.863281 198.667969 291.582031 L 198.667969 327.070312 C 199.855469 327.238281 201.039062 327.40625 202.28125 327.578125 C 203.464844 327.746094 204.648438 327.859375 205.890625 327.972656 L 205.890625 293.164062 C 204.648438 292.9375 203.464844 292.710938 202.28125 292.429688 Z M 202.28125 292.429688 " fill-opacity="1" fill-rule="nonzero"/><g clip-path="url(#fe95f02a34)"><path fill="#d9d9d9" d="M 205.890625 293.164062 C 207.640625 293.5 209.445312 293.78125 211.25 294.066406 L 211.25 328.367188 C 209.445312 328.253906 207.695312 328.140625 205.890625 327.972656 C 204.707031 327.859375 203.464844 327.746094 202.28125 327.578125 C 201.09375 327.40625 199.855469 327.238281 198.667969 327.070312 C 193.59375 326.277344 188.570312 325.152344 183.71875 323.683594 L 183.71875 286.675781 C 188.570312 288.648438 193.535156 290.285156 198.667969 291.582031 C 199.855469 291.863281 201.039062 292.203125 202.28125 292.429688 C 203.464844 292.710938 204.648438 292.9375 205.890625 293.164062 Z M 205.890625 293.164062 " fill-opacity="1" fill-rule="nonzero"/></g><path fill="#d9d9d9" d="M 211.195312 139.710938 L 211.195312 287.351562 C 210.121094 287.125 209.050781 286.898438 208.035156 286.675781 C 207.300781 286.503906 206.566406 286.335938 205.890625 286.167969 C 205.382812 286.054688 204.929688 285.941406 204.480469 285.828125 C 203.746094 285.660156 203.011719 285.433594 202.335938 285.265625 C 201.152344 284.925781 199.910156 284.585938 198.726562 284.191406 C 195.621094 283.234375 192.519531 282.105469 189.53125 280.921875 C 187.613281 280.128906 185.695312 279.285156 183.773438 278.4375 L 183.773438 182.8125 C 183.773438 180.835938 182.195312 179.203125 180.164062 179.203125 L 171.25 179.203125 L 171.25 139.710938 Z M 211.195312 139.710938 " fill-opacity="1" fill-rule="nonzero"/><path fill="#d9d9d9" d="M 171.195312 280.75 C 172.945312 281.710938 174.75 282.613281 176.554688 283.515625 L 176.554688 321.3125 C 174.75 320.636719 173 319.960938 171.195312 319.226562 C 170.007812 318.71875 168.769531 318.210938 167.582031 317.648438 L 167.582031 278.71875 C 168.824219 279.398438 170.007812 280.074219 171.195312 280.75 Z M 171.195312 280.75 " fill-opacity="1" fill-rule="nonzero"/><path fill="#d9d9d9" d="M 176.554688 186.421875 L 176.554688 274.769531 C 175.480469 274.207031 174.410156 273.585938 173.394531 272.964844 C 172.660156 272.515625 171.929688 272.117188 171.25 271.667969 C 170.742188 271.386719 170.292969 271.046875 169.839844 270.765625 C 169.105469 270.3125 168.375 269.804688 167.695312 269.355469 L 167.695312 186.421875 Z M 176.554688 186.421875 " fill-opacity="1" fill-rule="nonzero"/><path fill="#d9d9d9" d="M 164.03125 186.421875 L 164.03125 266.816406 C 165.214844 267.664062 166.398438 268.507812 167.640625 269.355469 C 168.375 269.863281 169.050781 270.3125 169.785156 270.765625 C 170.234375 271.046875 170.742188 271.386719 171.195312 271.667969 L 171.195312 186.421875 Z M 167.640625 278.71875 C 166.457031 277.988281 165.214844 277.253906 164.03125 276.519531 L 164.03125 315.898438 C 165.214844 316.519531 166.398438 317.082031 167.640625 317.648438 C 168.824219 318.210938 170.007812 318.71875 171.25 319.226562 L 171.25 280.75 C 170.007812 280.074219 168.824219 279.398438 167.640625 278.71875 Z M 167.640625 278.71875 " fill-opacity="1" fill-rule="nonzero"/><path fill="#d9d9d9" d="M 171.195312 280.75 C 172.945312 281.710938 174.75 282.613281 176.554688 283.515625 L 176.554688 321.3125 C 174.75 320.636719 173 319.960938 171.195312 319.226562 C 170.007812 318.71875 168.769531 318.210938 167.582031 317.648438 C 166.398438 317.082031 165.15625 316.519531 163.972656 315.898438 C 153.929688 310.820312 144.679688 304.390625 136.5 296.773438 L 136.5 252.148438 C 144.339844 261.625 153.59375 269.863281 163.972656 276.519531 C 165.15625 277.253906 166.34375 278.042969 167.582031 278.71875 C 168.824219 279.398438 170.007812 280.074219 171.195312 280.75 Z M 171.195312 280.75 " fill-opacity="1" fill-rule="nonzero"/><path fill="#d9d9d9" d="M 176.554688 186.421875 L 176.554688 274.769531 C 175.480469 274.207031 174.410156 273.585938 173.394531 272.964844 C 172.660156 272.515625 171.929688 272.117188 171.25 271.667969 C 170.742188 271.386719 170.292969 271.046875 169.839844 270.765625 C 169.105469 270.3125 168.375 269.804688 167.695312 269.355469 C 166.457031 268.507812 165.269531 267.71875 164.085938 266.816406 C 156.019531 260.949219 148.742188 254.066406 142.367188 246.335938 C 140.335938 243.910156 138.417969 241.371094 136.609375 238.777344 L 136.609375 186.421875 Z M 176.554688 186.421875 " fill-opacity="1" fill-rule="nonzero"/><g clip-path="url(#931a6120e8)"><path fill="#d9d9d9" d="M 175.539062 90.457031 L 198.667969 90.34375 L 205.890625 90.34375 L 245.832031 90.175781 L 253.054688 90.175781 L 276.46875 90.121094 L 225.863281 46.453125 Z M 175.539062 90.457031 " fill-opacity="1" fill-rule="nonzero"/></g><g clip-path="url(#ead4674acf)"><path fill="#ffffff" d="M 245.832031 311.609375 C 245.832031 314.488281 245.15625 317.363281 243.746094 319.902344 C 241.546875 323.910156 237.484375 326.957031 231.558594 327.6875 C 227.328125 328.195312 223.042969 328.480469 218.640625 328.535156 C 218.527344 328.535156 218.472656 328.535156 218.359375 328.535156 C 215.933594 328.535156 213.5625 328.535156 211.195312 328.367188 C 209.386719 328.253906 207.640625 328.140625 205.835938 327.972656 C 204.648438 327.859375 203.410156 327.746094 202.222656 327.578125 C 201.039062 327.40625 199.796875 327.238281 198.613281 327.070312 C 193.535156 326.277344 188.515625 325.152344 183.664062 323.683594 C 181.238281 322.949219 178.867188 322.160156 176.496094 321.3125 C 174.691406 320.636719 172.945312 319.960938 171.136719 319.226562 C 169.953125 318.71875 168.710938 318.210938 167.527344 317.648438 C 166.34375 317.082031 165.101562 316.519531 163.917969 315.898438 C 153.875 310.820312 144.621094 304.390625 136.441406 296.773438 C 113.480469 275.277344 98.867188 244.699219 98.644531 210.738281 C 98.53125 191.386719 103.042969 173.109375 111.109375 156.917969 C 110.433594 160.867188 109.984375 164.816406 109.699219 168.878906 C 109.53125 171.414062 109.476562 174.011719 109.476562 176.664062 C 109.476562 205.320312 119.628906 231.613281 136.554688 252.089844 C 144.398438 261.570312 153.648438 269.804688 164.03125 276.464844 C 165.214844 277.195312 166.398438 277.988281 167.640625 278.664062 C 168.824219 279.339844 170.007812 280.074219 171.25 280.695312 C 173 281.652344 174.804688 282.554688 176.609375 283.457031 C 178.980469 284.585938 181.347656 285.660156 183.773438 286.617188 C 188.628906 288.59375 193.589844 290.230469 198.726562 291.527344 C 199.910156 291.808594 201.09375 292.148438 202.335938 292.371094 C 203.519531 292.65625 204.707031 292.878906 205.945312 293.105469 C 207.695312 293.445312 209.5 293.726562 211.304688 294.007812 C 213.675781 294.347656 216.046875 294.628906 218.472656 294.796875 C 221.6875 295.082031 224.902344 295.195312 228.175781 295.195312 C 228.625 295.195312 229.078125 295.195312 229.585938 295.195312 C 240.191406 295.136719 245.832031 303.375 245.832031 311.609375 Z M 245.832031 311.609375 " fill-opacity="1" fill-rule="nonzero"/></g></svg>